<svg width="158" height="22" viewBox="0 0 158 22" fill="none" xmlns="http://www.w3.org/2000/svg">
<path d="M53.5362 21.4672V0.648438H45.5478L41.4917 15.2157L37.3737 0.648438H29.3853V21.4672H34.7109C34.7109 21.4672 34.6799 8.8167 34.587 5.89735L39.1076 21.4672H43.8449L48.3964 5.89735C48.2726 9.96674 48.2725 21.4672 48.2725 21.4672H53.5362ZM77.5014 21.4672L69.4509 0.648438H63.7537L55.6415 21.4672H61.4625L62.5462 18.135H70.5967L71.6804 21.4672H77.5014ZM69.358 14.39H63.8157L66.5094 5.60247L69.358 14.39ZM106.575 0.648438H101.125L97.9361 14.9798L93.8491 0.648438H88.9879L85.0247 14.9798L81.8045 0.648438H76.3241L81.8665 21.4672H87.5017L91.4649 8.13847L95.3972 21.4672H101.032L106.575 0.648438Z" fill="black"/>
<path d="M122.673 14.0951V12.6502H116.309C117.314 12.0309 118.319 11.3366 119.245 10.6235C121.176 9.10354 122.516 7.22701 122.516 5.33172C122.516 4.16827 122.023 3.00483 121.097 2.27298C120.013 1.39101 118.713 1.33472 118.24 1.33472C116.664 1.33472 115.659 1.91644 115.186 2.31051C113.984 3.32384 113.945 4.82506 113.945 5.29419C113.945 6.02604 114.083 6.4764 114.181 6.79541H115.915C115.718 6.0448 115.678 5.68826 115.678 5.29419C115.678 3.96186 116.289 2.79841 118.181 2.79841C119.757 2.79841 120.683 3.73667 120.683 5.21913C120.683 7.05813 119.402 8.40923 118.102 9.55391C115.836 11.5806 114.615 12.181 113.984 12.5001V14.0951H122.673ZM124.88 7.8275C124.88 12.7628 127.619 14.2077 129.648 14.2077C132.781 14.2077 134.456 11.4867 134.456 7.71491C134.456 3.69914 132.328 1.33472 129.629 1.33472C126.634 1.33472 124.88 4.09321 124.88 7.8275ZM126.634 7.90256C126.634 5.51937 127.166 2.81717 129.688 2.81717C132.505 2.81717 132.683 6.64529 132.683 7.75244C132.683 9.51638 132.249 12.744 129.688 12.744C127.658 12.744 126.634 10.7174 126.634 7.90256ZM145.648 14.0951V12.6502H139.283C140.288 12.0309 141.293 11.3366 142.219 10.6235C144.15 9.10354 145.49 7.22701 145.49 5.33172C145.49 4.16827 144.997 3.00483 144.071 2.27298C142.988 1.39101 141.687 1.33472 141.214 1.33472C139.638 1.33472 138.633 1.91644 138.16 2.31051C136.958 3.32384 136.919 4.82506 136.919 5.29419C136.919 6.02604 137.057 6.4764 137.155 6.79541H138.889C138.692 6.0448 138.653 5.68826 138.653 5.29419C138.653 3.96186 139.264 2.79841 141.155 2.79841C142.732 2.79841 143.658 3.73667 143.658 5.21913C143.658 7.05813 142.377 8.40923 141.076 9.55391C138.811 11.5806 137.589 12.181 136.958 12.5001V14.0951H145.648ZM147.855 7.8275C147.855 12.7628 150.594 14.2077 152.623 14.2077C155.756 14.2077 157.431 11.4867 157.431 7.71491C157.431 3.69914 155.303 1.33472 152.604 1.33472C149.609 1.33472 147.855 4.09321 147.855 7.8275ZM149.609 7.90256C149.609 5.51937 150.141 2.81717 152.663 2.81717C155.48 2.81717 155.658 6.64529 155.658 7.75244C155.658 9.51638 155.224 12.744 152.663 12.744C150.633 12.744 149.609 10.7174 149.609 7.90256Z" fill="black"/>
<path d="M14.7882 12.8391C14.5792 14.4757 13.7664 15.7364 11.6764 15.7364C9.42385 15.7364 8.26275 14.0113 8.26275 11.5343C8.26275 8.37166 9.88829 7.31008 11.5603 7.31008C13.1858 7.31008 14.254 8.17262 14.5327 9.69864L16.5763 9.52171C16.2976 8.0178 14.8346 6.02734 11.5371 6.02734C8.0073 6.02734 6.21924 8.52648 6.21924 11.6449C6.21924 14.8296 8.19308 17.1076 11.6299 17.1076C14.1379 17.1076 16.1815 16.046 16.7852 13.0161L14.7882 12.8391Z" fill="black"/>
<path d="M11.7109 20.7666C17.1342 20.7666 21.5307 16.5795 21.5307 11.4144C21.5307 6.24936 17.1342 2.06226 11.7109 2.06226C6.28758 2.06226 1.89111 6.24936 1.89111 11.4144C1.89111 16.5795 6.28758 20.7666 11.7109 20.7666Z" stroke="black" stroke-width="2"/>
</svg>
