<svg width="288" height="82" viewBox="0 0 288 82" fill="none" xmlns="http://www.w3.org/2000/svg">
<path d="M90.52 82V0.809997H60.85L45.785 57.62L30.49 0.809997H0.82V82H20.6C20.6 82 20.485 32.665 20.14 21.28L36.93 82H54.525L71.43 21.28C70.97 37.15 70.97 82 70.97 82H90.52ZM179.529 82L149.629 0.809997H128.469L98.3391 82H119.959L123.984 69.005H153.884L157.909 82H179.529ZM149.284 54.4H128.699L138.704 20.13L149.284 54.4ZM287.513 0.809997H267.273L255.428 56.7L240.248 0.809997H222.193L207.473 56.7L195.513 0.809997H175.158L195.743 82H216.673L231.393 30.02L245.998 82H266.928L287.513 0.809997Z" fill="black"/>
</svg>
